<svg width="110" height="110" viewBox="0 0 110 110" fill="none" xmlns="http://www.w3.org/2000/svg">
<g filter="url(#filter0_d_1067_4745)">
<circle cx="55.2363" cy="48" r="30" fill="#227AEB"/>
</g>
<path d="M61.3777 37.4116H50.8565C47.4322 37.4116 44.6465 40.1974 44.6465 43.6216V54.143C44.6465 57.5671 47.4322 60.3528 50.8565 60.3528H61.3779C64.8019 60.3528 67.5877 57.5671 67.5877 54.143V43.6216C67.5877 40.1974 64.8019 37.4116 61.3777 37.4116ZM66.2428 54.143C66.2428 56.8255 64.0603 59.0079 61.3777 59.0079H50.8565C48.1738 59.0079 45.9914 56.8255 45.9914 54.143V43.6216C45.9914 40.9389 48.1738 38.7565 50.8565 38.7565H61.3779C64.0603 38.7565 66.2428 40.9389 66.2428 43.6216V54.143Z" fill="white"/>
<path d="M56.1179 42.7061C52.7121 42.7061 49.9414 45.4768 49.9414 48.8825C49.9414 52.2883 52.7121 55.059 56.1179 55.059C59.5236 55.059 62.2943 52.2883 62.2943 48.8825C62.2943 45.4768 59.5236 42.7061 56.1179 42.7061ZM56.1179 53.7347C53.4425 53.7347 51.2657 51.5581 51.2657 48.8825C51.2657 46.2071 53.4425 44.0303 56.1179 44.0303C58.7934 44.0303 60.9701 46.2071 60.9701 48.8825C60.9701 51.5581 58.7934 53.7347 56.1179 53.7347Z" fill="white"/>
<path d="M62.2949 40.9414C61.3218 40.9414 60.5303 41.7331 60.5303 42.706C60.5303 43.6792 61.3218 44.4708 62.2949 44.4708C63.268 44.4708 64.0597 43.6792 64.0597 42.706C64.0597 41.7329 63.268 40.9414 62.2949 40.9414ZM62.2949 43.1903C62.028 43.1903 61.8107 42.973 61.8107 42.706C61.8107 42.4389 62.028 42.2218 62.2949 42.2218C62.562 42.2218 62.7793 42.4389 62.7793 42.706C62.7793 42.973 62.562 43.1903 62.2949 43.1903Z" fill="white"/>
<defs>
<filter id="filter0_d_1067_4745" x="0.530445" y="0.352941" width="109.412" height="109.412" filterUnits="userSpaceOnUse" color-interpolation-filters="sRGB">
<feFlood flood-opacity="0" result="BackgroundImageFix"/>
<feColorMatrix in="SourceAlpha" type="matrix" values="0 0 0 0 0 0 0 0 0 0 0 0 0 0 0 0 0 0 127 0" result="hardAlpha"/>
<feOffset dy="7.05882"/>
<feGaussianBlur stdDeviation="12.3529"/>
<feColorMatrix type="matrix" values="0 0 0 0 0 0 0 0 0 0 0 0 0 0 0 0 0 0 0.15 0"/>
<feBlend mode="normal" in2="BackgroundImageFix" result="effect1_dropShadow_1067_4745"/>
<feBlend mode="normal" in="SourceGraphic" in2="effect1_dropShadow_1067_4745" result="shape"/>
</filter>
</defs>
</svg>
