<svg width="110" height="110" viewBox="0 0 110 110" fill="none" xmlns="http://www.w3.org/2000/svg">
<g filter="url(#filter0_d_1067_4758)">
<circle cx="54.7061" cy="48" r="30" fill="#227AEB"/>
</g>
<g clip-path="url(#clip0_1067_4758)">
<path d="M64.3269 43.1503C64.0959 42.2809 63.4156 41.5961 62.5517 41.3637C60.9859 40.9414 54.7072 40.9414 54.7072 40.9414C54.7072 40.9414 48.4285 40.9414 46.8627 41.3637C45.9988 41.5961 45.3184 42.2809 45.0875 43.1503C44.668 44.7263 44.668 48.0145 44.668 48.0145C44.668 48.0145 44.668 51.3027 45.0875 52.8787C45.3184 53.7481 45.9988 54.4044 46.8627 54.6368C48.4285 55.0591 54.7072 55.0591 54.7072 55.0591C54.7072 55.0591 60.9859 55.0591 62.5517 54.6368C63.4156 54.4044 64.0959 53.7481 64.3269 52.8787C64.7464 51.3027 64.7464 48.0145 64.7464 48.0145C64.7464 48.0145 64.7464 44.7263 64.3269 43.1503ZM52.6537 50.9999V45.0291L57.9015 48.0146L52.6537 50.9999Z" fill="white"/>
</g>
<defs>
<filter id="filter0_d_1067_4758" x="0.000171661" y="0.352941" width="109.412" height="109.412" filterUnits="userSpaceOnUse" color-interpolation-filters="sRGB">
<feFlood flood-opacity="0" result="BackgroundImageFix"/>
<feColorMatrix in="SourceAlpha" type="matrix" values="0 0 0 0 0 0 0 0 0 0 0 0 0 0 0 0 0 0 127 0" result="hardAlpha"/>
<feOffset dy="7.05882"/>
<feGaussianBlur stdDeviation="12.3529"/>
<feColorMatrix type="matrix" values="0 0 0 0 0 0 0 0 0 0 0 0 0 0 0 0 0 0 0.15 0"/>
<feBlend mode="normal" in2="BackgroundImageFix" result="effect1_dropShadow_1067_4758"/>
<feBlend mode="normal" in="SourceGraphic" in2="effect1_dropShadow_1067_4758" result="shape"/>
</filter>
<clipPath id="clip0_1067_4758">
<rect width="21.1765" height="21.1765" fill="white" transform="translate(44.1182 37.4116)"/>
</clipPath>
</defs>
</svg>
