<svg width="42" height="40" viewBox="0 0 42 40" fill="none" xmlns="http://www.w3.org/2000/svg">
<path d="M31.5397 39.9488C28.8199 39.9488 26.0524 39.9011 23.3327 39.9965C22.1398 40.0442 21.8058 39.6148 21.8535 38.4696C21.9012 33.2686 21.9012 28.0199 21.8535 22.819C21.8535 21.7215 22.0921 21.2443 23.3327 21.2921C27.9611 21.3398 32.6372 21.2921 37.2656 21.3398C39.8422 21.3398 41.2259 22.7712 41.2737 25.3002C41.3214 29.69 41.2259 34.0798 41.3214 38.4696C41.3214 39.6148 41.0351 40.0442 39.8422 39.9965C37.027 39.9011 34.3072 39.9488 31.5397 39.9488Z" fill="#FA4A5F"/>
<path d="M28.7245 18.8109C26.8159 18.8109 24.9073 18.7631 22.9987 18.8109C22.1875 18.8109 21.8535 18.5723 21.8535 17.7134C21.9012 13.8962 21.8058 10.1267 21.9012 6.30943C21.9967 2.92164 24.955 0.154146 28.5337 0.10643C32.3509 0.0109997 36.1681 0.106431 39.9854 0.0587158C40.892 0.0587158 41.226 0.345008 41.226 1.2516C41.1783 4.92569 41.2737 8.59977 41.1783 12.3216C41.0828 15.9957 38.2199 18.6677 34.4027 18.8109C32.5418 18.8586 30.6331 18.8109 28.7245 18.8109Z" fill="#37B57E"/>
<path fill-rule="evenodd" clip-rule="evenodd" d="M0.0536706 12.2948C0.0506926 13.4668 0.0477183 14.6372 0.0477183 15.8047V15.8081C0.0477183 20.3399 0.0477183 24.8718 0.0954221 29.4036V29.9285C0.286284 35.1295 4.6761 39.6624 9.9248 39.901C11.6248 39.9905 13.3435 39.9868 15.0576 39.983C16.0857 39.9808 17.1121 39.9786 18.1319 39.9964C19.1816 39.9964 19.4202 39.567 19.4202 38.6127C19.4202 35.9132 19.4279 33.2137 19.4357 30.5143C19.4552 23.7661 19.4747 17.0179 19.3725 10.2698C19.277 4.54391 14.6486 0.154096 8.82735 0.0586652C7.80488 0.0382158 6.78241 0.0440579 5.75994 0.0499C4.39664 0.0576894 3.03334 0.0654789 1.67004 0.0109469C0.238577 -0.0844839 0 0.440388 0 1.7287C0.0716042 5.23731 0.0626203 8.77278 0.0536706 12.2948ZM8.11143 6.69114C8.016 5.35511 7.20483 4.68709 5.96423 4.54395C4.6282 4.63938 3.86475 5.30739 3.7216 6.64342C3.57846 7.83631 4.6282 8.88605 5.8688 8.93376C7.1094 8.93376 8.20686 7.93174 8.11143 6.69114Z" fill="#227AEB"/>
</svg>
